<svg width="64" height="64" viewBox="0 0 64 64" fill="none" xmlns="http://www.w3.org/2000/svg">
<path d="M16.6665 36.6666H36.6665V32.6666H16.6665V36.6666ZM16.6665 28.6666H47.3332V24.6666H16.6665V28.6666ZM16.6665 20.6666H47.3332V16.6666H16.6665V20.6666ZM6.6665 56.1026V11.4873C6.6665 10.1402 7.13317 8.99996 8.0665 8.06663C8.99984 7.13329 10.1401 6.66663 11.4872 6.66663H52.5125C53.8596 6.66663 54.9998 7.13329 55.9332 8.06663C56.8665 8.99996 57.3332 10.1402 57.3332 11.4873V41.846C57.3332 43.1931 56.8665 44.3333 55.9332 45.2666C54.9998 46.2 53.8596 46.6666 52.5125 46.6666H16.1025L6.6665 56.1026ZM14.3998 42.6666H52.5125C52.7178 42.6666 52.9058 42.5811 53.0765 42.41C53.2476 42.2393 53.3332 42.0513 53.3332 41.846V11.4873C53.3332 11.282 53.2476 11.094 53.0765 10.9233C52.9058 10.7522 52.7178 10.6666 52.5125 10.6666H11.4872C11.2818 10.6666 11.0938 10.7522 10.9232 10.9233C10.7521 11.094 10.6665 11.282 10.6665 11.4873V46.3593L14.3998 42.6666Z" fill="#60696C"/>
</svg>
