<svg width="124" height="40" viewBox="0 0 124 40" fill="none" xmlns="http://www.w3.org/2000/svg">
<path d="M39.4909 0H0V39.491H39.4909V0Z" fill="#2F3452"/>
<path d="M19.4763 21.9438H16.6261L19.4763 17.8762V21.9438ZM9.54021 19.1926H7.95677V15.7569H9.40826C11.0577 15.7569 11.7834 16.2834 11.7834 17.455C11.7834 18.6266 11.0445 19.1926 9.55341 19.1926M15.201 18.6529C15.2802 18.2448 15.3198 17.8236 15.3198 17.4024C15.3198 15.441 14.3433 13.7823 12.7731 13.0583C12.0077 12.7029 10.8466 12.4923 9.3027 12.5055H4.40723V26.9723H7.95677V22.444H9.68536C11.1368 22.444 12.2585 22.1544 13.1161 21.6674L9.42146 26.9855H13.1425L14.594 24.8925H19.4763V26.9855H23.0259V12.5186H19.4763L15.201 18.6661V18.6529Z" fill="#F4F5FA"/>
<path d="M29.5313 19.5875C29.2806 19.6797 29.0958 19.7323 28.7659 19.7586C28.159 19.7981 26.9978 19.7718 26.9978 19.7718V15.7437H28.4229C28.8319 15.7437 29.241 15.7964 29.6105 15.9675C29.9799 16.1255 30.2966 16.3756 30.4945 16.731C30.6397 16.9811 30.7057 17.2444 30.7321 17.5208C30.7584 17.8367 30.7321 18.1395 30.6397 18.4423C30.4682 19.0083 30.0723 19.3769 29.5313 19.5875ZM30.6925 22.0491H30.7716C31.5766 21.878 32.2891 21.5357 32.8829 20.9697C33.3975 20.4958 33.7538 19.9166 33.9913 19.2584C34.1365 18.8635 34.2288 18.4554 34.2684 18.0342C34.3476 17.1654 34.242 16.2966 33.9121 15.4805C33.5691 14.6117 33.0149 13.9008 32.2363 13.3743C31.8141 13.0978 31.3786 12.9135 30.9036 12.7951C30.4682 12.6898 30.0723 12.6108 29.5709 12.545C29.1882 12.5055 28.7791 12.5055 28.7791 12.5055H23.4614V26.9723H27.011V22.2466L30.4022 26.9723H34.4004L30.6925 22.0491Z" fill="#F4F5FA"/>
<path d="M34.3869 14.0851C34.2814 14.0851 34.1758 14.0719 34.0834 14.0193C33.9911 13.9666 33.8987 13.9271 33.8327 13.8482C33.7668 13.7692 33.7008 13.6902 33.6612 13.5981C33.6216 13.5059 33.5952 13.4006 33.5952 13.2953C33.5952 13.19 33.6084 13.0847 33.6612 12.9925C33.714 12.9004 33.7536 12.8082 33.8327 12.7424C33.8987 12.6634 33.9911 12.6108 34.0834 12.5713C34.1758 12.5318 34.2814 12.5055 34.3869 12.5055C34.4925 12.5055 34.5981 12.5186 34.6904 12.5713C34.7828 12.6108 34.8752 12.6634 34.9411 12.7424C35.0071 12.8214 35.0731 12.9004 35.1127 12.9925C35.1523 13.0847 35.1787 13.19 35.1787 13.2953C35.1787 13.4006 35.1655 13.5059 35.1127 13.5981C35.0731 13.6902 35.0203 13.7823 34.9411 13.8482C34.8752 13.9271 34.7828 13.9798 34.6904 14.0193C34.5981 14.0588 34.4925 14.0851 34.3869 14.0851ZM34.3869 13.9403C34.5057 13.9403 34.6113 13.914 34.7168 13.8482C34.8092 13.7955 34.8884 13.7165 34.9543 13.6112C35.0071 13.5191 35.0335 13.4006 35.0335 13.2821C35.0335 13.1637 35.0071 13.0583 34.9543 12.9662C34.9016 12.8741 34.8224 12.7951 34.7168 12.7293C34.6245 12.6766 34.5057 12.6371 34.3869 12.6371C34.2682 12.6371 34.1626 12.6634 34.0571 12.7293C33.9515 12.7951 33.8855 12.8609 33.8195 12.9662C33.7668 13.0583 33.7272 13.1768 33.7272 13.2821C33.7272 13.3874 33.7536 13.5059 33.8195 13.6112C33.8855 13.7165 33.9515 13.7823 34.0571 13.8482C34.1626 13.914 34.2682 13.9403 34.3869 13.9403ZM34.123 13.677V12.9004H34.4661C34.5321 12.9004 34.5981 12.9267 34.6376 12.9794C34.6904 13.032 34.7168 13.0847 34.7168 13.1505C34.7168 13.2163 34.7036 13.2426 34.6772 13.2821C34.6508 13.3216 34.6113 13.3611 34.5717 13.3743L34.7168 13.677H34.5849L34.4529 13.4006H34.255V13.677H34.1362H34.123ZM34.2418 13.2821H34.4661C34.5057 13.2821 34.5321 13.269 34.5585 13.2426C34.5849 13.2163 34.5981 13.19 34.5981 13.1505C34.5981 13.111 34.5849 13.0715 34.5585 13.0583C34.5321 13.032 34.4925 13.0189 34.4661 13.0189H34.2418V13.2953V13.2821Z" fill="#F4F5FA"/>
<path d="M119.867 26.1205C117.598 26.1205 115.872 24.395 115.872 22.1255V17.3655C115.872 15.096 117.598 13.3705 119.867 13.3705C122.137 13.3705 123.862 15.096 123.862 17.3655V22.1255C123.862 24.395 122.137 26.1205 119.867 26.1205ZM119.867 24.9135C121.372 24.9135 122.596 23.6895 122.596 22.185V17.306C122.596 15.793 121.372 14.569 119.867 14.569C118.363 14.569 117.139 15.793 117.139 17.306V22.185C117.139 23.6895 118.363 24.9135 119.867 24.9135Z" fill="#2F3452"/>
<path d="M109.47 26.1205C107.166 26.1205 105.33 24.2845 105.33 21.896V17.6545C105.33 15.198 107.141 13.379 109.563 13.379C110.957 13.379 112.207 14.025 112.972 15.1215L112.011 15.912C111.493 15.1045 110.575 14.569 109.563 14.569C107.838 14.569 106.597 15.963 106.597 17.544V19.4225C107.319 18.547 108.399 17.9775 109.589 17.9775C111.858 17.9775 113.618 19.7625 113.618 22.032C113.618 24.293 111.739 26.1205 109.47 26.1205ZM109.47 24.905C111.068 24.905 112.36 23.63 112.36 22.032C112.36 20.434 111.076 19.142 109.478 19.142C107.88 19.142 106.597 20.434 106.597 22.032C106.597 23.613 107.872 24.905 109.47 24.905Z" fill="#2F3452"/>
<path d="M99.2228 26.112C97.4038 26.112 95.9418 25.092 95.4233 23.4345L96.6133 23.0775C97.0213 24.293 98.0328 24.9305 99.2058 24.905C100.838 24.871 101.832 23.7745 101.832 22.134C101.832 20.468 100.77 19.363 99.1888 19.363C98.7468 19.363 98.2283 19.499 97.8118 19.703L97.1828 18.7085L101.39 14.824H95.9078V13.6255H102.98V14.841L99.3928 18.2665C101.62 18.2495 103.124 19.8475 103.124 22.134C103.124 24.4885 101.475 26.112 99.2228 26.112Z" fill="#2F3452"/>
<path d="M94.1249 24.769V25.8655C92.5694 26.1885 90.9629 25.993 90.3594 24.769C90.0279 24.0975 90.0704 23.443 90.0704 22.542V17.7565H88.1069V16.6855H90.0704V14.1355H91.3114V16.6855H94.1249V17.7565H91.3114V22.491C91.3114 23.2645 91.2774 23.749 91.4984 24.14C91.9064 24.905 92.8074 24.9815 94.1249 24.769Z" fill="#2F3452"/>
<path d="M83.6206 26.112C81.4701 26.112 79.9996 25.1345 79.6851 23.477L80.9601 23.2645C81.2236 24.31 82.2606 24.973 83.6886 24.973C85.0826 24.973 85.9411 24.344 85.9411 23.341C85.9411 22.491 85.5501 22.236 83.2211 21.607C80.7306 20.9355 79.9656 20.332 79.9656 19.0485C79.9656 17.4845 81.3766 16.4305 83.4506 16.4305C85.5246 16.4305 87.0376 17.51 87.2246 19.108L85.9496 19.3375C85.7711 18.258 84.8106 17.595 83.4336 17.5695C82.1331 17.544 81.2321 18.122 81.2321 18.989C81.2321 19.72 81.7506 20.06 83.9181 20.604C86.4511 21.25 87.2416 21.9045 87.2416 23.324C87.2416 25.058 85.8731 26.112 83.6206 26.112Z" fill="#2F3452"/>
<path d="M74.1352 26.1205C71.4577 26.1205 69.7407 24.225 69.7407 21.318C69.7407 18.309 71.4322 16.4305 74.0842 16.4305C76.8042 16.4305 78.4022 18.3855 78.3087 21.624H71.0752C71.1772 23.732 72.2567 24.922 74.0842 24.922C75.3932 24.922 76.3962 24.3015 76.9657 23.154L78.1302 23.6045C77.3992 25.211 75.9117 26.1205 74.1352 26.1205ZM74.1182 17.578C72.3502 17.578 71.2962 18.649 71.1007 20.5785H76.9997C76.8042 18.598 75.8267 17.578 74.1182 17.578Z" fill="#2F3452"/>
<path d="M63.6673 26.095C60.9133 26.095 59.9868 23.8 59.9868 21.7345V16.6855H61.2448V21.369C61.2448 23.392 61.9843 24.905 63.9053 24.905C65.6733 24.905 66.6253 23.6555 66.6253 21.5815V16.6855H67.8748V25.8655H66.7528V24.5905C66.0728 25.585 64.9848 26.095 63.6673 26.095Z" fill="#2F3452"/>
<path d="M53.0752 26.1205C49.6072 26.1205 47.4907 23.6215 47.4907 19.7455C47.4907 15.895 49.5732 13.379 53.0752 13.379C55.6762 13.379 57.3252 14.6965 57.9712 16.745L56.7132 17.051C56.1692 15.555 54.9282 14.586 53.1262 14.586C50.2532 14.569 48.8422 16.6855 48.8167 19.7455C48.7912 22.8055 50.2532 24.905 53.1262 24.922C55.7527 24.9305 56.9852 23.307 57.1127 20.6975H54.2907V19.6265H58.4217C58.4472 19.89 58.4557 20.23 58.4557 20.349C58.4557 23.6555 56.6707 26.1205 53.0752 26.1205Z" fill="#2F3452"/>
</svg>
