<svg width="245" height="21" viewBox="0 0 245 21" fill="none" xmlns="http://www.w3.org/2000/svg" preserveAspectRatio="none">
<path d="M12.1411 9.21802L12.5308 8.57718L12.1176 8.32596L11.7183 8.5986L12.1411 9.21802ZM17.0751 12.218L16.6855 12.8589L17.3602 13.2691L17.7352 12.5742L17.0751 12.218ZM21.3924 4.21802L21.8647 3.63542L21.162 3.06573L20.7324 3.86183L21.3924 4.21802ZM23.8594 6.21802L23.3871 6.80062L23.5936 6.96802H23.8594V6.21802ZM30.6437 6.21802L31.2229 5.74165L30.9979 5.46802H30.6437V6.21802ZM38.0447 15.218L37.4654 15.6944L37.8578 16.1716L38.4013 15.8778L38.0447 15.218ZM43.5954 12.218L44.0153 11.5965L43.6387 11.3421L43.2388 11.5582L43.5954 12.218ZM50.9965 17.218L50.5766 17.8395L51.1099 18.1998L51.547 17.7273L50.9965 17.218ZM56.5472 11.218L57.0978 10.7087L56.5472 10.1136L55.9967 10.7087L56.5472 11.218ZM60.2477 15.218L59.6972 15.7273L60.1478 16.2145L60.6862 15.8265L60.2477 15.218ZM65.7985 11.218L66.4921 10.9328L66.1308 10.0541L65.36 10.6095L65.7985 11.218ZM68.2655 17.218L67.5718 17.5032L67.7629 17.968H68.2655V17.218ZM73.1995 17.218V17.968H73.498L73.7149 17.7629L73.1995 17.218ZM76.9 13.718L77.1818 13.0229L76.7349 12.8418L76.3846 13.1731L76.9 13.718ZM80.6005 15.218L80.3188 15.9131L80.4543 15.968H80.6005V15.218ZM94.169 15.218L94.6788 14.6679L94.4631 14.468H94.169V15.218ZM98.4863 19.218L97.9766 19.7682L98.4767 20.2315L98.9855 19.7778L98.4863 19.218ZM104.654 13.718V12.968H104.368L104.155 13.1583L104.654 13.718ZM108.971 13.718L109.405 13.1063L109.21 12.968H108.971V13.718ZM113.905 17.218L113.471 17.8297L113.782 18.0499L114.143 17.9294L113.905 17.218ZM124.39 13.718V12.968H124.268L124.152 13.0066L124.39 13.718ZM128.707 13.718V14.468H129.111L129.334 14.1302L128.707 13.718ZM133.641 6.21802V5.46802H133.237L133.015 5.80582L133.641 6.21802ZM137.958 6.21802L138.625 5.87518L138.416 5.46802H137.958V6.21802ZM141.042 12.218L140.375 12.5609L140.472 12.749L140.652 12.8589L141.042 12.218ZM145.976 15.218L145.587 15.8589L146.308 16.2973L146.658 15.5297L145.976 15.218ZM152.144 1.71802L152.811 1.37518L152.104 5.26905e-05L151.461 1.40636L152.144 1.71802ZM158.311 13.718L157.644 14.0609L157.853 14.468H158.311V13.718ZM167.562 13.718V14.468H168.007L168.22 14.0786L167.562 13.718ZM170.029 9.21802L169.798 8.50459L169.515 8.59642L169.372 8.85748L170.029 9.21802ZM179.281 6.21802L179.512 5.50459L179.281 5.42957L179.049 5.50459L179.281 6.21802ZM188.532 9.21802L188.301 9.93144L188.54 10.0091L188.778 9.92647L188.532 9.21802ZM197.167 6.21802V5.46802H197.04L196.92 5.50956L197.167 6.21802ZM202.101 6.21802V6.96802H202.29L202.457 6.87782L202.101 6.21802ZM205.801 4.21802L206.439 3.82431L206.068 3.22144L205.444 3.55822L205.801 4.21802ZM210.735 12.218L210.097 12.6117L210.778 13.717L211.395 12.5742L210.735 12.218ZM215.052 4.21802L215.712 3.86183L215.052 2.63879L214.392 3.86183L215.052 4.21802ZM219.37 12.218L218.71 12.5742L219.293 13.656L219.988 12.642L219.37 12.218ZM222.453 7.71802L222.258 6.99399L221.991 7.06608L221.835 7.29405L222.453 7.71802ZM228.004 6.21802L228.677 5.88616L228.404 5.3331L227.808 5.49399L228.004 6.21802ZM231.705 13.718L231.032 14.0499L231.48 14.9576L232.218 14.2648L231.705 13.718ZM243.936 3.26484C244.238 2.98135 244.253 2.50671 243.97 2.20471C243.686 1.90271 243.212 1.8877 242.91 2.17119L243.423 2.71802L243.936 3.26484ZM0.422852 17.218L0.845725 17.8374L12.564 9.83744L12.1411 9.21802L11.7183 8.5986L-2.14875e-05 16.5986L0.422852 17.218ZM12.1411 9.21802L11.7515 9.85886L16.6855 12.8589L17.0751 12.218L17.4648 11.5772L12.5308 8.57718L12.1411 9.21802ZM17.0751 12.218L17.7352 12.5742L22.0524 4.5742L21.3924 4.21802L20.7324 3.86183L16.4151 11.8618L17.0751 12.218ZM21.3924 4.21802L20.9201 4.80062L23.3871 6.80062L23.8594 6.21802L24.3317 5.63542L21.8647 3.63542L21.3924 4.21802ZM23.8594 6.21802V6.96802H30.6437V6.21802V5.46802H23.8594V6.21802ZM30.6437 6.21802L30.0644 6.69439L37.4654 15.6944L38.0447 15.218L38.624 14.7416L31.2229 5.74165L30.6437 6.21802ZM38.0447 15.218L38.4013 15.8778L43.952 12.8778L43.5954 12.218L43.2388 11.5582L37.6881 14.5582L38.0447 15.218ZM43.5954 12.218L43.1756 12.8395L50.5766 17.8395L50.9965 17.218L51.4163 16.5965L44.0153 11.5965L43.5954 12.218ZM50.9965 17.218L51.547 17.7273L57.0978 11.7273L56.5472 11.218L55.9967 10.7087L50.4459 16.7087L50.9965 17.218ZM56.5472 11.218L55.9967 11.7273L59.6972 15.7273L60.2477 15.218L60.7983 14.7087L57.0978 10.7087L56.5472 11.218ZM60.2477 15.218L60.6862 15.8265L66.237 11.8265L65.7985 11.218L65.36 10.6095L59.8092 14.6095L60.2477 15.218ZM65.7985 11.218L65.1048 11.5032L67.5718 17.5032L68.2655 17.218L68.9591 16.9328L66.4921 10.9328L65.7985 11.218ZM68.2655 17.218V17.968H73.1995V17.218V16.468H68.2655V17.218ZM73.1995 17.218L73.7149 17.7629L77.4154 14.2629L76.9 13.718L76.3846 13.1731L72.6841 16.6731L73.1995 17.218ZM76.9 13.718L76.6183 14.4131L80.3188 15.9131L80.6005 15.218L80.8823 14.5229L77.1818 13.0229L76.9 13.718ZM80.6005 15.218V15.968H94.169V15.218V14.468H80.6005V15.218ZM94.169 15.218L93.6593 15.7682L97.9766 19.7682L98.4863 19.218L98.996 18.6679L94.6788 14.6679L94.169 15.218ZM98.4863 19.218L98.9855 19.7778L105.153 14.2778L104.654 13.718L104.155 13.1583L97.9871 18.6583L98.4863 19.218ZM104.654 13.718V14.468H108.971V13.718V12.968H104.654V13.718ZM108.971 13.718L108.537 14.3297L113.471 17.8297L113.905 17.218L114.339 16.6063L109.405 13.1063L108.971 13.718ZM113.905 17.218L114.143 17.9294L124.627 14.4294L124.39 13.718L124.152 13.0066L113.668 16.5066L113.905 17.218ZM124.39 13.718V14.468H128.707V13.718V12.968H124.39V13.718ZM128.707 13.718L129.334 14.1302L134.268 6.63022L133.641 6.21802L133.015 5.80582L128.081 13.3058L128.707 13.718ZM133.641 6.21802V6.96802H137.958V6.21802V5.46802H133.641V6.21802ZM137.958 6.21802L137.291 6.56086L140.375 12.5609L141.042 12.218L141.709 11.8752L138.625 5.87518L137.958 6.21802ZM141.042 12.218L140.652 12.8589L145.587 15.8589L145.976 15.218L146.366 14.5772L141.432 11.5772L141.042 12.218ZM145.976 15.218L146.658 15.5297L152.826 2.02967L152.144 1.71802L151.461 1.40636L145.294 14.9064L145.976 15.218ZM152.144 1.71802L151.477 2.06086L157.644 14.0609L158.311 13.718L158.978 13.3752L152.811 1.37518L152.144 1.71802ZM158.311 13.718V14.468H167.562V13.718V12.968H158.311V13.718ZM167.562 13.718L168.22 14.0786L170.687 9.57856L170.029 9.21802L169.372 8.85748L166.905 13.3575L167.562 13.718ZM170.029 9.21802L170.261 9.93144L179.512 6.93144L179.281 6.21802L179.049 5.50459L169.798 8.50459L170.029 9.21802ZM179.281 6.21802L179.049 6.93144L188.301 9.93144L188.532 9.21802L188.763 8.50459L179.512 5.50459L179.281 6.21802ZM188.532 9.21802L188.778 9.92647L197.413 6.92647L197.167 6.21802L196.92 5.50956L188.286 8.50956L188.532 9.21802ZM197.167 6.21802V6.96802H202.101V6.21802V5.46802H197.167V6.21802ZM202.101 6.21802L202.457 6.87782L206.158 4.87782L205.801 4.21802L205.444 3.55822L201.744 5.55822L202.101 6.21802ZM205.801 4.21802L205.163 4.61172L210.097 12.6117L210.735 12.218L211.373 11.8243L206.439 3.82431L205.801 4.21802ZM210.735 12.218L211.395 12.5742L215.712 4.5742L215.052 4.21802L214.392 3.86183L210.075 11.8618L210.735 12.218ZM215.052 4.21802L214.392 4.5742L218.71 12.5742L219.37 12.218L220.03 11.8618L215.712 3.86183L215.052 4.21802ZM219.37 12.218L219.988 12.642L223.072 8.14198L222.453 7.71802L221.835 7.29405L218.751 11.7941L219.37 12.218ZM222.453 7.71802L222.649 8.44205L228.2 6.94205L228.004 6.21802L227.808 5.49399L222.258 6.99399L222.453 7.71802ZM228.004 6.21802L227.331 6.54987L231.032 14.0499L231.705 13.718L232.377 13.3862L228.677 5.88616L228.004 6.21802ZM231.705 13.718L232.218 14.2648L243.936 3.26484L243.423 2.71802L242.91 2.17119L231.191 13.1712L231.705 13.718Z" fill="#3CC1AF"/>
</svg>
